<?xml version="1.0" standalone="no"?>
<!DOCTYPE svg PUBLIC "-//W3C//DTD SVG 20010904//EN"
 "http://www.w3.org/TR/2001/REC-SVG-20010904/DTD/svg10.dtd">
<svg version="1.0" xmlns="http://www.w3.org/2000/svg"
 width="160.000000pt" height="160.000000pt" viewBox="0 0 160.000000 160.000000"
 preserveAspectRatio="xMidYMid meet">
<metadata>
Created by potrace 1.14, written by Peter Selinger 2001-2017
</metadata>
<g transform="translate(0.000000,160.000000) scale(0.100000,-0.100000)"
fill="#000000" stroke="none">
<path d="M470 1241 c-14 -8 -100 -23 -147 -25 -12 -1 -20 -3 -17 -5 2 -2 -33
-19 -79 -37 -45 -18 -83 -38 -85 -44 -2 -5 -8 -10 -13 -10 -18 0 -51 -36 -75
-82 -21 -42 -23 -56 -20 -155 4 -117 25 -233 58 -322 52 -139 166 -277 273
-331 28 -14 53 -29 56 -33 3 -5 9 -8 13 -7 4 1 16 0 27 -3 14 -4 18 -10 13
-19 -6 -11 -5 -11 8 0 18 14 51 5 41 -12 -4 -6 0 -6 9 2 9 7 19 9 22 4 2 -4
19 -7 35 -6 18 1 31 -3 31 -9 0 -7 5 -5 10 3 9 13 11 13 20 0 5 -8 10 -10 10
-5 0 18 43 15 57 -3 12 -15 12 -15 6 3 -6 18 -5 19 11 6 15 -12 17 -12 14 0
-2 8 3 13 10 12 6 -2 12 2 12 8 0 5 4 8 10 4 5 -3 25 1 45 9 19 8 35 12 35 9
0 -3 7 0 15 7 8 7 15 9 15 4 0 -5 5 -2 10 6 5 8 13 15 17 15 13 0 96 61 122
89 14 14 30 26 37 26 7 0 29 14 48 30 31 28 88 54 140 64 36 8 90 30 104 44 7
6 17 12 22 12 5 0 34 25 64 55 143 144 168 343 57 449 -55 53 -152 64 -219 26
l-32 -19 -25 39 c-24 37 -91 95 -125 108 -8 3 -23 12 -34 21 -10 9 -19 14 -20
12 0 -3 -26 3 -56 12 -49 14 -86 24 -130 33 -81 18 -322 29 -347 15 -12 -6
-24 -6 -29 -1 -5 5 -16 5 -24 1z m1028 -336 c30 -65 -20 -216 -96 -289 -31
-31 -109 -78 -127 -77 -2 0 -23 -6 -46 -15 -23 -8 -43 -13 -45 -12 -1 2 11 41
27 88 16 47 29 95 29 108 0 12 7 25 15 28 11 5 15 21 15 61 0 62 22 118 54
135 62 34 153 20 174 -27z"/>
</g>
</svg>
